<svg xmlns="http://www.w3.org/2000/svg" version="1.1" xmlns:xlink="http://www.w3.org/1999/xlink" xmlns:svgjs="http://svgjs.dev/svgjs" width="1000" height="164" viewBox="0 0 1000 164"><g transform="matrix(1,0,0,1,-0.6060507509588433,0.3708513532877191)"><svg viewBox="0 0 396 65" data-background-color="#ffffff" preserveAspectRatio="xMidYMid meet" height="164" width="1000" xmlns="http://www.w3.org/2000/svg" xmlns:xlink="http://www.w3.org/1999/xlink"><defs></defs><g id="tight-bounds" transform="matrix(1,0,0,1,0.2399963749157905,-0.14698376807135105)"><svg viewBox="0 0 395.52 65.2939620011045" height="65.2939620011045" width="395.52"><g><svg viewBox="0 0 493.891096920364 81.53344082474229" height="65.2939620011045" width="395.52"><g><rect width="5.320383383564537" height="59.29168453608248" x="79.12300834422209" y="11.120878144329904" fill="#6f605b" opacity="1" stroke-width="0" stroke="transparent" fill-opacity="1" class="rect-o-0" data-fill-palette-color="primary" rx="1%" id="o-0" data-palette-color="#6f605b"></rect></g><g transform="matrix(1,0,0,1,98.37109692036394,11.26836989690722)"><svg viewBox="0 0 395.52000000000004 58.996701030927845" height="58.996701030927845" width="395.52000000000004"><g><svg viewBox="0 0 395.52000000000004 58.996701030927845" height="58.996701030927845" width="395.52000000000004"><g><svg viewBox="0 0 395.52000000000004 58.996701030927845" height="58.996701030927845" width="395.52000000000004"><g transform="matrix(1,0,0,1,0,0)"><svg width="395.52000000000004" viewBox="3.25 -36.95000076293945 308.17999267578125 46.30000305175781" height="58.996701030927845" data-palette-color="#6f605b"><g class="undefined-text-0" data-fill-palette-color="primary" id="text-0"><path d="M14.75-27.45L10.95-27.45 10.95-17.95 14.6-17.95Q19.6-17.95 19.6-22.85L19.6-22.85Q19.6-25 18.3-26.23 17-27.45 14.75-27.45L14.75-27.45ZM29.8 0L20.6 0 13.3-11.7 10.95-11.7 10.95 0 3.25 0 3.25-33.7 14.9-33.7Q20.55-33.7 23.98-30.7 27.4-27.7 27.4-22.9L27.4-22.9Q27.4-15.7 21.25-12.95L21.25-12.95 29.8 0ZM39.55-15L48.35-15 48.35-15.6Q48-20.05 44.45-20.05L44.45-20.05Q42.7-20.05 41.35-18.78 40-17.5 39.55-15L39.55-15ZM53.6-7.55L53.6-7.55 53.6-1.45Q51 0.25 45.65 0.25L45.65 0.25Q39.4 0.25 35.92-3.38 32.45-7 32.45-12.7L32.45-12.7Q32.45-18.75 35.82-22.18 39.2-25.6 44.15-25.6L44.15-25.6Q49.25-25.6 52.2-22.63 55.15-19.65 55.15-13.75L55.15-13.75Q55.15-12.6 54.75-9.8L54.75-9.8 39.85-9.8Q40.6-7.7 42.45-6.55 44.3-5.4 46.9-5.4L46.9-5.4Q50.75-5.4 53.6-7.55ZM66.5-12.6L66.5-12.6Q66.7-9.25 68.5-7.4 70.3-5.55 73.25-5.55L73.25-5.55Q76.4-5.55 79.3-7.3L79.3-7.3 79.3-1.2Q76.34 0.4 72.2 0.4L72.2 0.4Q66.5 0.4 62.8-3.23 59.1-6.85 59.1-12.6L59.1-12.6Q59.2-18.3 62.8-22.03 66.4-25.75 72.65-25.75L72.65-25.75Q76.5-25.75 79.3-24.3L79.3-24.3 79.3-18.05Q76.65-19.7 73.4-19.7L73.4-19.7Q70.34-19.7 68.45-17.88 66.55-16.05 66.5-12.6ZM91.34 0L84.04 0 84.04-25.35 91.34-25.35 91.34 0ZM84.69-29.7Q83.44-30.95 83.44-32.7 83.44-34.45 84.69-35.7 85.94-36.95 87.69-36.95 89.44-36.95 90.69-35.7 91.94-34.45 91.94-32.7 91.94-30.95 90.69-29.7 89.44-28.45 87.69-28.45 85.94-28.45 84.69-29.7ZM110.59-5.8L110.59-5.8Q112.99-5.8 114.49-7.63 115.99-9.45 115.99-12.6L115.99-12.6Q115.99-16.05 114.47-17.82 112.94-19.6 110.59-19.6L110.59-19.6Q108.29-19.6 106.59-17.85 104.89-16.1 104.89-12.95L104.89-12.95Q104.89-9.7 106.49-7.75 108.09-5.8 110.59-5.8ZM97.59-25.35L104.89-25.35 104.89-21.45Q107.54-25.65 112.54-25.65L112.54-25.65Q117.44-25.65 120.42-22.18 123.39-18.7 123.39-12.75L123.39-12.75Q123.39-7.1 120.52-3.4 117.64 0.3 112.54 0.3L112.54 0.3Q107.39 0.3 104.89-3.75L104.89-3.75 104.89 9.35 97.59 9.35 97.59-25.35ZM133.99-15L142.79-15 142.79-15.6Q142.44-20.05 138.89-20.05L138.89-20.05Q137.14-20.05 135.79-18.78 134.44-17.5 133.99-15L133.99-15ZM148.04-7.55L148.04-7.55 148.04-1.45Q145.44 0.25 140.09 0.25L140.09 0.25Q133.84 0.25 130.36-3.38 126.89-7 126.89-12.7L126.89-12.7Q126.89-18.75 130.26-22.18 133.64-25.6 138.59-25.6L138.59-25.6Q143.69-25.6 146.64-22.63 149.59-19.65 149.59-13.75L149.59-13.75Q149.59-12.6 149.19-9.8L149.19-9.8 134.29-9.8Q135.04-7.7 136.89-6.55 138.74-5.4 141.34-5.4L141.34-5.4Q145.19-5.4 148.04-7.55Z" fill="#6f605b" data-fill-palette-color="primary"></path><path d="M160.54 0L152.84 0 152.84-33.7 160.54-33.7 160.54 0ZM180.94-33.7L169.89-16.85 181.84 0 172.19 0 160.89-16.75 171.79-33.7 180.94-33.7ZM191.54-15L200.34-15 200.34-15.6Q199.99-20.05 196.44-20.05L196.44-20.05Q194.69-20.05 193.34-18.78 191.99-17.5 191.54-15L191.54-15ZM205.59-7.55L205.59-7.55 205.59-1.45Q202.99 0.25 197.64 0.25L197.64 0.25Q191.39 0.25 187.91-3.38 184.44-7 184.44-12.7L184.44-12.7Q184.44-18.75 187.81-22.18 191.19-25.6 196.14-25.6L196.14-25.6Q201.24-25.6 204.19-22.63 207.14-19.65 207.14-13.75L207.14-13.75Q207.14-12.6 206.74-9.8L206.74-9.8 191.84-9.8Q192.59-7.7 194.44-6.55 196.29-5.4 198.89-5.4L198.89-5.4Q202.74-5.4 205.59-7.55ZM218.18-15L226.99-15 226.99-15.6Q226.64-20.05 223.09-20.05L223.09-20.05Q221.34-20.05 219.99-18.78 218.64-17.5 218.18-15L218.18-15ZM232.24-7.55L232.24-7.55 232.24-1.45Q229.64 0.25 224.29 0.25L224.29 0.25Q218.04 0.25 214.56-3.38 211.09-7 211.09-12.7L211.09-12.7Q211.09-18.75 214.46-22.18 217.84-25.6 222.79-25.6L222.79-25.6Q227.89-25.6 230.84-22.63 233.79-19.65 233.79-13.75L233.79-13.75Q233.79-12.6 233.39-9.8L233.39-9.8 218.49-9.8Q219.24-7.7 221.09-6.55 222.93-5.4 225.54-5.4L225.54-5.4Q229.39-5.4 232.24-7.55ZM251.98-5.8L251.98-5.8Q254.38-5.8 255.88-7.63 257.38-9.45 257.38-12.6L257.38-12.6Q257.38-16.05 255.86-17.82 254.33-19.6 251.98-19.6L251.98-19.6Q249.68-19.6 247.98-17.85 246.28-16.1 246.28-12.95L246.28-12.95Q246.28-9.7 247.88-7.75 249.48-5.8 251.98-5.8ZM238.98-25.35L246.28-25.35 246.28-21.45Q248.93-25.65 253.93-25.65L253.93-25.65Q258.83-25.65 261.81-22.18 264.78-18.7 264.78-12.75L264.78-12.75Q264.78-7.1 261.91-3.4 259.03 0.3 253.93 0.3L253.93 0.3Q248.78 0.3 246.28-3.75L246.28-3.75 246.28 9.35 238.98 9.35 238.98-25.35ZM275.38-15L284.18-15 284.18-15.6Q283.83-20.05 280.28-20.05L280.28-20.05Q278.53-20.05 277.18-18.78 275.83-17.5 275.38-15L275.38-15ZM289.43-7.55L289.43-7.55 289.43-1.45Q286.83 0.25 281.48 0.25L281.48 0.25Q275.23 0.25 271.76-3.38 268.28-7 268.28-12.7L268.28-12.7Q268.28-18.75 271.66-22.18 275.03-25.6 279.98-25.6L279.98-25.6Q285.08-25.6 288.03-22.63 290.98-19.65 290.98-13.75L290.98-13.75Q290.98-12.6 290.58-9.8L290.58-9.8 275.68-9.8Q276.43-7.7 278.28-6.55 280.13-5.4 282.73-5.4L282.73-5.4Q286.58-5.4 289.43-7.55ZM296.18-25.35L303.43-25.35 303.43-20.65Q304.13-22.85 305.75-24.18 307.38-25.5 309.53-25.5L309.53-25.5Q310.73-25.5 311.43-25.3L311.43-25.3 311.43-18.4Q310.23-18.95 308.68-18.95L308.68-18.95Q306.33-18.95 304.88-17.23 303.43-15.5 303.43-12.65L303.43-12.65 303.43 0 296.13 0 296.18-25.35Z" fill="#f36527" data-fill-palette-color="secondary"></path></g></svg></g></svg></g></svg></g></svg></g><g><svg viewBox="0 0 65.19530315164477 81.53344082474229" height="81.53344082474229" width="65.19530315164477"><g><svg xmlns="http://www.w3.org/2000/svg" xmlns:xlink="http://www.w3.org/1999/xlink" version="1.1" x="0" y="0" viewBox="14.017646789550781 5 71.96527862548828 89.99999237060547" enable-background="new 0 0 100 100" xml:space="preserve" height="81.53344082474229" width="65.19530315164477" class="icon-icon-0" data-fill-palette-color="accent" id="icon-0"><g fill="#f36527" data-fill-palette-color="accent"><path fill-rule="evenodd" clip-rule="evenodd" d="M80.208 8.35c-0.833 0.434-2.184 0.567-4.05 0.4-1.834-0.2-3.384-0.633-4.65-1.3C74.041 6.717 76.941 7.017 80.208 8.35zM77.908 15.45c1.5-0.434 3.467-0.383 5.899 0.15 0.733 0.167 1.267 0.7 1.601 1.6 0.366 0.967 0.55 2.133 0.55 3.5 0.1 5.6-0.101 10.2-0.601 13.8-0.366 2.5-0.55 5.583-0.55 9.25 0.067 4.167 0.101 7.284 0.101 9.35-0.134 7.867-0.15 16.767-0.051 26.7 0 3.2-1.316 5.566-3.949 7.1-2.467 1.4-5.067 2.366-7.801 2.9-4.933 0.966-11.8 1.333-20.6 1.1l-13.3-0.75c-5.367-0.3-9.817-0.367-13.351-0.2-1.033 0.033-1.732-0.017-2.1-0.15-0.733-0.233-1.15-0.833-1.25-1.8-1.5-1-2.333-2.417-2.5-4.25 0-0.2 0.083-1.85 0.25-4.95 0.033-0.833-0.017-1.917-0.15-3.25-0.133-1.7-0.199-2.8-0.199-3.3-0.334-7.767-0.434-13.633-0.301-17.6 0.101-4.067 0.15-6.767 0.15-8.1-0.1-3.034-0.383-5.717-0.85-8.05-0.167-0.966-0.2-2.466-0.101-4.5-0.267-5.8-0.7-10.35-1.3-13.65-0.133-0.633-0.083-1.017 0.15-1.15 0.399-0.267 0.633-0.617 0.699-1.05 0-0.134-0.017-0.55-0.05-1.25-0.3-2.5 0.851-4.083 3.45-4.75 4.434-1.134 10.083-1.434 16.95-0.9 0.5 0.067 1.283 0.15 2.35 0.25 2.267-0.1 5.217-0.1 8.851 0 4.666 0.233 7.6 0.35 8.8 0.35 1.533 0 3.667 0.184 6.399 0.55 3.033 0.4 5.167 0.633 6.4 0.7 1.467 0.067 2.55 0.067 3.25 0 0.9-0.1 1.35 0.233 1.35 1 0 0.733-0.482 1.1-1.449 1.1l-1.2-0.25c-1.3-0.2-2.15 0.417-2.55 1.85-0.268 0.833-0.434 2.117-0.5 3.85l-0.15 6c0 0.833-0.35 1.383-1.05 1.65-0.667 0.2-1.2-0.133-1.601-1-0.5-0.967-1.467-2.2-2.899-3.7-0.7 0.7-1.4 1.967-2.101 3.8-0.333 0.966-0.949 1.35-1.85 1.15-0.633-0.133-0.95-0.684-0.95-1.65l-0.3-8.7c-0.033-0.667-0.066-1.667-0.1-3-0.233-1.167-0.934-1.717-2.101-1.65-1.433 0.066-3.816-0.034-7.149-0.3-3.101-0.2-5.5-0.216-7.2-0.05-0.767 0.1-1.717 0.083-2.851-0.05-1.267-0.134-2.217-0.217-2.85-0.25-1.7 0-3-0.05-3.9-0.15-2.5-0.233-4.866 0.233-7.1 1.4-1.767 0.966-3.633 2.483-5.6 4.55-0.533 0.6-0.733 1.316-0.601 2.15 0.233 1.033 0.384 1.85 0.45 2.45 0.566-0.633 2.117-2.117 4.65-4.45 1.899-1.7 3.316-3.2 4.25-4.5l0.6-0.65c0.233-0.2 0.5-0.167 0.8 0.1 0.5 0.433 0.417 0.933-0.25 1.5l-8.649 7.95c-0.9 0.934-1.4 1.6-1.5 2-0.101 0.367-0.018 1.2 0.25 2.5l8.699-7.95c0.533-0.434 0.967-0.483 1.301-0.15 0.467 0.466 0.366 0.883-0.301 1.25-0.8 0.466-1.699 1.2-2.699 2.2-1.367 1.367-2.167 2.167-2.4 2.4-0.333 0.267-1.233 1.184-2.7 2.75-1.5 1.6-1.967 3.684-1.399 6.25l7.699-7.4c0.533-0.533 1.051-0.967 1.551-1.3 0.166-0.167 0.366-0.15 0.6 0.05 0.167 0.1 0.25 0.2 0.25 0.3 0.033 0.167-0.017 0.316-0.15 0.45l-1.85 1.9c-3.434 3.034-5.583 4.967-6.45 5.8-1.167 1.133-1.8 2.066-1.899 2.8-0.067 0.733 0.267 1.967 1 3.7 1.467-1.133 3.583-3.25 6.35-6.35l1.05-1.4c0.3-0.3 0.567-0.367 0.8-0.2 0.434 0.167 0.5 0.483 0.2 0.95-0.933 1.167-1.649 2-2.149 2.5-1.5 1.6-2.667 2.733-3.5 3.4-2.7 2.133-3.634 4.833-2.801 8.1l8.65-9.05c0.2 0.7 0.167 1.333-0.1 1.9-0.101 0.2-0.4 0.566-0.9 1.1l-4.25 4.2c-1.3 1.233-2.217 2.4-2.75 3.5-0.667 1.367-0.9 2.833-0.7 4.4 0 0.2-0.05 0.9-0.149 2.1-0.067 0.867 0.017 1.617 0.25 2.25 1.133-1.067 2.5-2.75 4.1-5.05 1.667-2.434 2.95-4.134 3.85-5.1l0.7 0.5c-1.433 2.2-2.517 3.8-3.25 4.8-1.267 1.733-2.483 3.2-3.649 4.4-1.9 1.934-2.417 4.55-1.551 7.85l6.75-9c0.167-0.3 0.417-0.383 0.75-0.25 0.5 0.2 0.567 0.533 0.2 1l-1.8 2.35c-0.5 0.633-2.2 2.867-5.1 6.7-0.601 0.8-0.95 1.683-1.051 2.65-0.033 0.7 0.051 1.767 0.25 3.2 1.334-1.333 3.334-3.8 6-7.4 0.033-0.1 0.217-0.45 0.551-1.05 0.267-0.434 0.6-0.55 1-0.35 0.433 0.267 0.5 0.633 0.199 1.1l-2.6 3.6c-1.167 1.6-2.3 3.017-3.4 4.25-1.333 1.667-1.767 3.433-1.3 5.3 0.367 0.1 0.7 0.017 1-0.25 0.134-0.167 0.317-0.467 0.55-0.9l4.45-6c0.134-0.167 0.317-0.467 0.55-0.9 0.301-0.233 0.634-0.2 1 0.1 0.301 0.233 0.351 0.483 0.15 0.75-0.333 0.267-0.55 0.467-0.65 0.6l-5.949 8.35c-0.667 1.033-1.033 1.917-1.101 2.65-0.033 0.767 0.167 1.95 0.601 3.55 0.566-1.367 1.633-2.9 3.199-4.6 1.768-1.8 2.867-3.167 3.301-4.1 0.433-0.8 0.933-1 1.5-0.6 0.333 0.233 0.449 0.483 0.35 0.75-0.066 0.1-0.267 0.333-0.6 0.7l-5.4 6c-0.467 0.433-0.783 0.75-0.95 0.95-0.3 0.4-0.217 0.8 0.25 1.2 0.4 0.333 0.8 0.333 1.2 0 0.066-0.1 0.367-0.467 0.9-1.1 1.267-1.367 2.316-2.8 3.149-4.3 0.3-0.5 0.65-0.6 1.05-0.3 0.334 0.2 0.384 0.55 0.15 1.05-0.833 1.367-1.8 2.633-2.9 3.8-0.467 0.467-0.8 0.833-1 1.1-0.399 0.4-0.666 0.85-0.8 1.35 0.867 0.3 1.55 0.367 2.05 0.2 0.634-0.167 1.101-0.65 1.4-1.45 0.233-0.633 0.617-0.833 1.15-0.6 0.3 0.133 0.449 0.316 0.449 0.55-0.033 0.1-0.133 0.333-0.3 0.7-0.2 0.367-0.183 0.633 0.05 0.8 0.134 0.1 0.417 0.167 0.851 0.2l6 0.35c9.467 0.433 15.149 0.667 17.05 0.7 6.133 0.167 11.3-0.066 15.5-0.7 1.8-0.267 3.316-1.133 4.55-2.6 1.167-1.467 1.717-3.033 1.65-4.7-0.101-3-0.033-6.583 0.2-10.75 0.133-2.433 0.35-6.033 0.649-10.8 0.167-3.333 0.184-7.333 0.05-12-0.133-2.667-0.3-6.65-0.5-11.95-0.033-1.5-0.083-3.733-0.149-6.7-0.033-2.633 0.033-4.883 0.2-6.75 0.199-1.8 0-3.267-0.601-4.4C76.208 16.617 76.574 15.883 77.908 15.45zM79.408 18.6c-0.033 1.567-0.051 2.75-0.051 3.55-0.199 6.733-0.1 13.033 0.301 18.9 0.3 4.1 0.433 8.167 0.399 12.2-0.433 11.067-0.683 19.383-0.75 24.95 0 3.433-0.566 6.35-1.7 8.75 1.7-0.8 2.95-1.684 3.75-2.65 0.834-1.067 1.268-2.4 1.301-4 0-0.4 0.05-1.15 0.149-2.25 0.067-0.967 0.083-1.717 0.05-2.25-0.033-2.1 0.117-8.367 0.45-18.8 0.167-5.2 0.184-9.066 0.05-11.6-0.133-1.967-0.116-4.167 0.051-6.6 0.033-1.067 0.199-3.25 0.5-6.55 0.199-3.433 0.3-5.417 0.3-5.95 0.1-2.267-0.017-4.267-0.351-6-0.166-1.1-0.433-1.833-0.8-2.2-0.333-0.333-1.05-0.633-2.149-0.9-0.634-0.167-1.051-0.117-1.25 0.15C79.458 17.55 79.375 17.967 79.408 18.6zM65.458 7c-0.7 0.567-1.65 0.767-2.851 0.6-1.967-0.3-4.517-0.533-7.649-0.7-4.134-0.2-6.65-0.35-7.55-0.45l-1.551-0.1c-0.333-0.1-0.5-0.316-0.5-0.65 0-0.367 0.2-0.55 0.601-0.55 0.3-0.1 0.7-0.15 1.2-0.15 3.399 0.067 9.267 0.483 17.6 1.25C65.058 6.25 65.291 6.5 65.458 7zM61.357 15.05c-0.166 3.9-0.133 6.917 0.101 9.05 0.833-0.5 1.217-1.15 1.149-1.95 0-1.034 0.367-1.65 1.101-1.85 0.833-0.233 1.566 0.133 2.2 1.1 0.199 0.366 0.533 0.917 1 1.65 0.399 0.566 0.899 0.966 1.5 1.2 0.199-0.633 0.316-1.417 0.35-2.35 0-0.5 0-1.233 0-2.2 0.133-2.667 0-4.25-0.4-4.75-0.467-0.5-2.05-0.85-4.75-1.05l-0.899-0.05C61.808 13.75 61.357 14.15 61.357 15.05zM60.658 35.2c-0.5-0.067-0.834-0.05-1 0.05l-8-1.45c-0.768-0.167-1.067-0.5-0.9-1 0.1-0.3 0.267-0.45 0.5-0.45 0.167 0 0.417 0.05 0.75 0.15 0.467 0.034 1.733 0.284 3.8 0.75 1.567 0.333 2.851 0.434 3.851 0.3 1.066-0.067 1.6 0.25 1.6 0.95C61.225 34.967 61.024 35.2 60.658 35.2zM59.308 37.2c1.4-0.4 2.55-0.184 3.45 0.65 0.934 0.9 1.267 2.05 1 3.45-0.367 1.9-0.717 3.283-1.05 4.15-0.567 1.467-1.384 2.65-2.45 3.55-1.566 1.4-3.5 1.983-5.8 1.75-0.533-0.066-0.934-0.1-1.2-0.1-0.467 0.033-0.816 0.216-1.05 0.55-1.267 1.533-2.167 2.717-2.7 3.55-0.133 0.167 0.083 0.583 0.65 1.25 2 2.567 3.283 4.1 3.85 4.6l1.45 1.5c0.5 0.533 0.45 1.184-0.15 1.95-0.533 0.667-1.116 0.583-1.75-0.25l-3.85-4.95c-0.967-1.3-1.601-2.083-1.9-2.35-0.7 0.6-1.45 1.4-2.25 2.4-1.167 1.533-1.816 2.366-1.95 2.5-0.199 0.267-0.883 1.116-2.05 2.55-0.533 0.667-0.883 1.05-1.05 1.15-0.467 0.333-0.9 0.333-1.3 0-0.5-0.467-0.583-0.9-0.25-1.3 0.2-0.267 0.566-0.6 1.1-1 1.134-1.4 2.9-3.434 5.3-6.1 1.2-1.3 1.334-2.55 0.4-3.75-0.367-0.467-1.083-1.55-2.15-3.25-0.6-1.1-1.533-1.733-2.8-1.9-1.066-0.1-2.35-0.983-3.85-2.65-1.467-1.634-2.25-3-2.351-4.1 0-0.367 0.134-0.6 0.4-0.7 0.2-0.066 0.383-0.066 0.55 0 0.267 0.1 0.5 0.3 0.7 0.6 0.133 0.133 0.316 0.367 0.55 0.7 0.767 1.066 1.25 1.7 1.45 1.9 0.566 0.733 1.233 1.283 2 1.65 0-0.767-0.25-1.6-0.75-2.5-0.667-1.133-1.05-1.867-1.15-2.2-0.033-0.2-0.116-0.5-0.25-0.9-0.033-0.333 0.101-0.583 0.4-0.75 0.4-0.233 0.85 0.05 1.35 0.85 0.167 0.233 0.634 1.1 1.4 2.6 0.566 1.1 1.133 1.917 1.7 2.45 0.7-0.966 1.05-1.733 1.05-2.3 0.033-0.633-0.283-1.35-0.95-2.15l-2.3-2.3c-0.5-0.466-0.55-0.9-0.15-1.3 0.4-0.467 0.867-0.533 1.4-0.2 1.733 1 2.917 2.4 3.55 4.2 0.601 1.833 0.483 3.683-0.35 5.55-0.434 0.934-0.467 1.667-0.101 2.2l2.95 4.8 2.65-3.05c0.333-0.4 0.483-0.867 0.45-1.4-0.334-1.867-0.117-3.7 0.649-5.5 0.634-1.267 1.7-2.8 3.2-4.6 0.633-0.8 1.217-1.133 1.75-1 0.434 0.1 0.867 0.066 1.3-0.1C58.357 37.534 58.774 37.4 59.308 37.2zM54.658 47.95c0.699 0.5 1.416 0.667 2.149 0.5 1.5-0.367 2.8-1.417 3.9-3.15 1.1-1.733 1.45-3.35 1.05-4.85-0.233-1.133-0.9-1.684-2-1.65-1.5 0.033-2.983 0.9-4.45 2.6-1.433 1.6-2.05 3.183-1.85 4.75C53.591 46.883 53.991 47.483 54.658 47.95zM80.857 32.35c-0.533-4.633-0.267-8.517 0.801-11.65v11.65H80.857zM82.408 66.85c0.1 1.533 0.017 2.85-0.25 3.95-0.233 1.033-0.384 2.267-0.45 3.7 0 0.167 0 1.417 0 3.75 0 0.967-0.017 1.667-0.05 2.1-0.134 0.833-0.417 1.483-0.851 1.95l-0.75-0.05 1.5-19.4c0.367 0 0.55 0.017 0.55 0.05C82.241 64.667 82.341 65.983 82.408 66.85zM54.758 71.3l-5.45-0.3c-1.6 0.1-4.533-0.033-8.8-0.4-0.867 0-1.267-0.283-1.2-0.85 0.033-0.433 0.434-0.583 1.2-0.45 1.867 0.3 4.133 0.466 6.8 0.5 1.5 0.033 3.783 0.066 6.851 0.1 0.433 0 0.717 0.033 0.85 0.1 0.3 0.067 0.4 0.317 0.3 0.75C55.274 71.083 55.091 71.267 54.758 71.3zM61.958 70.85c0.7 0.1 0.967 0.4 0.8 0.9s-0.467 0.667-0.9 0.5c-0.732-0.233-1.166-0.383-1.3-0.45-0.433-0.2-0.783-0.534-1.05-1 0.367-0.167 0.816-0.217 1.35-0.15C61.091 70.717 61.458 70.784 61.958 70.85zM63.107 93.7c0.367 0.066 0.634 0.267 0.801 0.6-0.134 0.433-0.384 0.667-0.75 0.7-0.467 0-0.801 0-1 0l-14.4-0.05c-0.5 0-0.783-0.017-0.85-0.05-0.301-0.167-0.467-0.384-0.5-0.65-0.101-0.367 0.066-0.6 0.5-0.7 0.333-0.067 0.616-0.083 0.85-0.05 1.767 0.267 4.15 0.333 7.15 0.2 3.5-0.133 5.899-0.15 7.199-0.05C62.308 93.684 62.641 93.7 63.107 93.7zM75.458 93.2c1.767-0.133 2.933-0.3 3.5-0.5 0.566-0.2 1.533-0.867 2.899-2 1.134-0.967 2.217-1.517 3.25-1.65-2.433 4.3-6.75 6-12.949 5.1C72.891 93.65 73.991 93.333 75.458 93.2zM20.008 17.4c1.5-0.9 2.717-2.083 3.65-3.55-1.101 0.3-1.934 0.667-2.5 1.1C20.591 15.517 20.208 16.333 20.008 17.4zM44.008 33.5c-1-0.133-2.017-0.617-3.05-1.45 0.833 0.033 2.017 0.083 3.55 0.15 1.333 0.066 2.517 0.267 3.55 0.6C46.391 33.4 45.041 33.633 44.008 33.5zM14.658 57.6c-0.533-3.167-0.733-5.65-0.601-7.45 0-0.733 0.25-1.117 0.75-1.15 0.5 0 0.75 0.367 0.75 1.1l0.05 7.8C14.975 58.034 14.658 57.934 14.658 57.6zM14.308 63.35c0.033-0.3 0.233-0.467 0.601-0.5 0.433-0.033 0.732 0.3 0.899 1l0.4 2.3c0.233 1.833 0.35 4.316 0.35 7.45 0.033 3.667 0.083 6.15 0.15 7.45 0.1 0.867-0.167 1.333-0.8 1.4-0.533 0.033-0.851-0.383-0.95-1.25-0.101-0.8-0.101-1.75 0-2.85 0.066-0.6 0.183-1.533 0.35-2.8l-1-11.35C14.241 63.767 14.241 63.483 14.308 63.35zM15.408 87.9c-0.2-0.467-0.033-0.75 0.5-0.85 0.6-0.067 0.982 0.267 1.149 1-0.1 0.6-0.3 0.917-0.6 0.95-0.333 0.034-0.583-0.083-0.75-0.35C15.675 88.583 15.574 88.333 15.408 87.9z" fill="#f36527" data-fill-palette-color="accent"></path></g></svg></g></svg></g></svg></g></svg><rect width="395.52" height="65.2939620011045" fill="none" stroke="none" visibility="hidden"></rect></g></svg></g></svg>